<?xml version="1.0" encoding="UTF-8"?>
<!DOCTYPE svg PUBLIC "-//W3C//DTD SVG 1.1//EN" "http://www.w3.org/Graphics/SVG/1.1/DTD/svg11.dtd">
<!-- Creator: CorelDRAW X8 -->
<svg xmlns="http://www.w3.org/2000/svg" xml:space="preserve" width="210mm" height="209.973mm" version="1.1" style="shape-rendering:geometricPrecision; text-rendering:geometricPrecision; image-rendering:optimizeQuality; fill-rule:evenodd; clip-rule:evenodd"
viewBox="0 0 21000 20997"
 xmlns:xlink="http://www.w3.org/1999/xlink">
 <defs>
  <style type="text/css">
   <![CDATA[
    .fil0 {fill:white}
   ]]>
  </style>
 </defs>
 <g id="Capa_x0020_1">
  <metadata id="CorelCorpID_0Corel-Layer"/>
  <g id="_2587666067504">
   <path class="fil0" d="M518 2898c143,44 384,0 663,-28 278,-29 592,-43 860,8 268,51 488,167 642,322 153,154 240,347 301,510 62,163 98,295 150,455 52,160 120,348 185,562 65,213 129,452 177,625 49,174 82,282 160,515 78,232 201,588 318,975 116,387 226,805 336,1179 110,373 220,703 330,1044 110,341 220,692 343,1028 123,336 259,655 456,990 197,334 454,683 789,941 335,258 748,425 1207,508 460,83 966,83 1650,83 685,0 1546,0 2319,0 773,0 1456,0 2092,0 635,0 1223,0 1688,0 466,0 809,0 1233,0 424,0 928,0 1265,42 338,41 510,123 589,268 79,144 65,350 -96,469 -160,118 -466,150 -887,165 -421,16 -956,16 -1487,16 -531,0 -1058,0 -1571,0 -513,0 -1013,0 -1505,2 -493,2 -978,6 -1633,6 -655,0 -1479,-4 -2043,-6 -564,-2 -868,-2 -1136,13 -268,14 -502,44 -619,144 -117,100 -119,272 1,371 119,100 360,129 653,143 294,14 640,14 994,14 353,0 714,0 1193,0 480,0 1078,0 1568,0 489,0 870,0 1321,0 450,0 971,0 1464,0 492,0 956,0 1437,0 481,0 979,0 1414,0 435,0 808,0 1097,-80 289,-80 495,-240 638,-426 143,-186 223,-398 269,-601 46,-203 57,-398 -24,-600 -82,-202 -256,-411 -532,-555 -277,-145 -655,-226 -1077,-266 -422,-41 -889,-41 -1347,-41 -458,0 -908,0 -1354,0 -447,0 -890,0 -1288,-1 -397,0 -749,0 -1134,0 -385,0 -802,0 -1397,0 -594,1 -1365,1 -2100,-66 -734,-67 -1433,-201 -1938,-476 -505,-275 -816,-691 -1014,-1063 -199,-372 -285,-699 -368,-996 -84,-297 -166,-563 -250,-839 -85,-276 -172,-562 -266,-869 -95,-307 -195,-635 -299,-976 -105,-340 -213,-692 -321,-1034 -108,-341 -216,-671 -314,-957 -98,-287 -186,-528 -307,-770 -121,-242 -275,-484 -494,-715 -220,-231 -506,-450 -803,-582 -297,-132 -604,-176 -912,-165 -308,11 -616,77 -869,154 -252,77 -450,165 -527,274 -77,110 -33,242 110,286z"/>
   <circle class="fil0" cx="9982" cy="16771" r="2045"/>
   <circle class="fil0" cx="15657" cy="16771" r="2045"/>
   <path class="fil0" d="M7618 4336c-325,0 -588,-263 -588,-587 0,-325 263,-588 588,-588l12150 0 0 0c476,0 862,386 862,862 0,110 -21,216 -59,313l0 0c-24,61 -54,118 -90,171l-2569 4876c-273,431 -765,724 -1313,724l-282 0c0,0 -351,17 -363,16 -1180,-48 -2102,-99 -3273,-209 -536,-51 -1274,-55 -1811,-64 -271,-5 -800,-42 -1197,56 -172,43 -330,9 -176,-90 40,-26 93,-47 152,-73 527,-228 1122,-286 1474,-301 384,-16 849,-13 1349,-30 501,-17 1045,-23 1460,-15 654,14 1254,12 1906,7 497,-3 942,-169 1189,-646 129,-259 644,-1165 635,-1302 -14,-206 -168,-375 -375,-375l0 0 -10 0 -1278 0 -32 1 0 -1 -7738 0 0 0c-217,0 -392,-175 -392,-392 0,-216 175,-392 392,-392l9738 0c225,0 421,-127 520,-313l0 0 3 -7 397 -750c11,-19 21,-39 31,-59l0 -1 0 0c34,-74 53,-157 53,-244 0,-324 -263,-587 -588,-587l-10765 0z"/>
  </g>
 </g>
</svg>
